<svg xmlns="http://www.w3.org/2000/svg" viewBox="2397 1755 1074 962">
  <path d="M3415.18 2094.71C3416.5 2151.13 3404.3 2207.04 3379.6 2257.78C3331.27 2354.72 3259.02 2431.95 3178.02 2501.77C3111.28 2560.5 3038.45 2611.95 2960.79 2655.23C2944.63 2663.98 2930.68 2666.62 2914.24 2657.29C2759.57 2569.82 2622.42 2461.98 2520.56 2314.36C2479.49 2255 2453.44 2189.23 2451.66 2116.42C2447.18 1934.21 2593.52 1810.36 2775.16 1857.48C2831.25 1871.71 2877.16 1903.67 2915.17 1947.02C2933.74 1968.37 2933.39 1967.87 2951.54 1947.02C3021.93 1867.37 3109.62 1833.13 3214.89 1852.14C3326.78 1872.21 3405.43 1962.39 3414.19 2075.71C3414.26 2082.4 3414.69 2088.66 3415.18 2094.71Z" fill="#D42719"/>
</svg>
