<svg width="4822" height="4822" viewBox="0 0 4822 4822" fill="none" xmlns="http://www.w3.org/2000/svg">
<path d="M4598.23 1743.3V1737.43H4639.15V1743.3H4621.99V1792H4615.38V1743.3H4598.23ZM4649.35 1737.43H4657.23L4675.78 1782.73H4676.42L4694.96 1737.43H4702.85V1792H4696.67V1750.54H4696.13L4679.08 1792H4673.11L4656.06 1750.54H4655.53V1792H4649.35V1737.43Z" fill="#762D22"/>
<path d="M3415.18 2094.71C3416.5 2151.13 3404.3 2207.04 3379.6 2257.78C3331.27 2354.72 3259.02 2431.95 3178.02 2501.77C3111.28 2560.5 3038.45 2611.95 2960.79 2655.23C2944.63 2663.98 2930.68 2666.62 2914.24 2657.29C2759.57 2569.82 2622.42 2461.98 2520.56 2314.36C2479.49 2255 2453.44 2189.23 2451.66 2116.42C2447.18 1934.21 2593.52 1810.36 2775.16 1857.48C2831.25 1871.71 2877.16 1903.67 2915.17 1947.02C2933.74 1968.37 2933.39 1967.87 2951.54 1947.02C3021.93 1867.37 3109.62 1833.13 3214.89 1852.14C3326.78 1872.21 3405.43 1962.39 3414.19 2075.71C3414.26 2082.4 3414.69 2088.66 3415.18 2094.71Z" fill="#E22B2B"/>
<path d="M731.767 2231.3V1939.47C731.767 1885.95 750.699 1866.3 804.367 1866.16C929.448 1865.78 1054.48 1865.78 1179.47 1866.16C1226.45 1866.16 1246.59 1885.52 1249.72 1932.28C1250.36 1943.38 1250.36 1954.5 1249.72 1965.6C1247.3 2012 1230.15 2028.59 1183.24 2028.8C1115.13 2029.16 1047.08 2028.8 978.964 2028.8C927.005 2029.16 934.051 2021.18 932.984 2073.57C932.628 2093.07 933.624 2112.58 932.414 2131.94C931.347 2148.38 937.325 2153.79 953.767 2153.65C1016.97 2153 1080.18 2153.65 1143.45 2153.65C1196.12 2153.65 1214.63 2171.65 1215.63 2224.82V2226.89C1216.41 2290.02 1200.96 2305.82 1137.33 2306.03C1076.9 2306.03 1016.33 2306.89 956.045 2306.03C937.254 2305.68 931.774 2312.16 932.485 2329.88C933.482 2355.5 932.129 2381.27 932.485 2406.96C932.984 2445.83 926.079 2444.47 971.277 2444.4H1190.15C1197.26 2444.4 1204.03 2444.4 1210.93 2445.04C1247.66 2447.68 1264.53 2463.62 1268.8 2500.56C1270.78 2517.12 1270.57 2533.88 1268.16 2550.39C1262.75 2586.33 1249.58 2599.28 1213.28 2599.78C1147.3 2600.64 1081.32 2600.14 1015.26 2600.14C943.02 2600.14 870.775 2600.14 798.531 2599.78C751.198 2599.78 731.838 2579.64 731.695 2531.88C731.695 2431.85 731.695 2331.8 731.695 2231.73L731.767 2231.3Z" fill="#E22B2B"/>
<path d="M4157.57 2234.93C4157.57 2138.37 4157.57 2041.78 4157.57 1945.17C4157.57 1886.66 4178 1866.16 4236.58 1866.16C4343.34 1866.16 4450.61 1866.16 4557.58 1866.16C4611.61 1866.16 4630.18 1884.6 4632.11 1938.41C4632.53 1950.27 4632.34 1962.15 4631.54 1974C4628.83 2012.01 4613.03 2028.02 4574.6 2028.45C4509.33 2029.3 4443.99 2028.8 4378.65 2028.87C4347.97 2028.87 4347.83 2028.87 4347.4 2058.56C4347.4 2083.61 4348.04 2108.38 4346.9 2133.65C4346.26 2149.38 4352.31 2154 4367.47 2153.79C4420.28 2153.17 4473.07 2153.17 4525.84 2153.79C4578.23 2154.36 4595.95 2172.37 4597.02 2224.11C4597.02 2229.02 4597.02 2233.86 4597.02 2238.7C4596.23 2286.61 4577.3 2306.04 4529.68 2306.39C4476.16 2306.82 4422.92 2306.82 4369.18 2306.04C4353.45 2306.04 4346.47 2309.81 4346.9 2326.82C4347.9 2359.42 4347.75 2392.16 4346.9 2424.76C4346.4 2440.78 4353.24 2444.97 4368.25 2444.76C4436.37 2443.91 4504.49 2443.62 4572.53 2443.48C4582.95 2443.64 4593.35 2444.54 4603.64 2446.18C4613.43 2447.16 4622.63 2451.36 4629.79 2458.12C4636.95 2464.88 4641.67 2473.83 4643.21 2483.55C4648.71 2507.31 4649.31 2531.94 4644.99 2555.94C4639.15 2588.25 4627.77 2598.65 4594.6 2599.93C4558.51 2601.42 4522.35 2601.28 4486.19 2601.78C4398.65 2602.84 4311.1 2603.49 4223.55 2600.71C4178 2599.21 4157.86 2578.43 4157.71 2533.31C4157.71 2433.66 4157.71 2334.58 4157.71 2235.22L4157.57 2234.93Z" fill="#E22B2B"/>
<path d="M3778.8 2345.54L3818.51 2219.48C3850.07 2119.55 3881.65 2019.64 3913.25 1919.76C3926.92 1876.62 3945.07 1863.6 3990.55 1862.17C4017.74 1861.32 4044.71 1862.17 4070.41 1872.71C4100.02 1884.81 4110.2 1904.45 4102.86 1935.7C4093.03 1972.58 4081.03 2008.85 4066.92 2044.32C4006.42 2210.58 3945.92 2376.71 3880.79 2541.34C3857.66 2600.14 3839.23 2612.52 3776.23 2610.03C3765.13 2609.6 3754.03 2608.18 3743.07 2606.76C3714.59 2603.05 3696.09 2588.61 3684.7 2560.78C3602.7 2361.1 3526.07 2159.43 3454.8 1955.77C3451.54 1946.63 3448.97 1937.25 3447.11 1927.73C3444.61 1917.82 3445.66 1907.36 3450.08 1898.15C3454.5 1888.94 3462.02 1881.57 3471.31 1877.33C3491.69 1867.52 3513.84 1861.9 3536.44 1860.83C3559.04 1859.75 3581.62 1863.23 3602.85 1871.07C3620.07 1877.12 3627.9 1891.71 3633.81 1907.94C3662.85 1987.45 3687.33 2068.52 3713.6 2148.95C3731.89 2205.03 3749.9 2261.19 3768.12 2317.28C3770.68 2324.97 3773.81 2332.51 3778.8 2345.54Z" fill="#E22B2B"/>
<path d="M1362.28 2228.31C1362.28 2127.62 1362.28 2026.88 1362.28 1926.09C1362.28 1889.93 1372.67 1874.35 1407.69 1866.94C1445.05 1857.99 1484.1 1858.89 1521.01 1869.58C1550.9 1878.9 1559.94 1891.43 1560.01 1922.82C1560.01 2088.87 1560.01 2254.93 1559.51 2421.06C1559.51 2440.7 1563.78 2447.39 1584.5 2447.04C1662.79 2445.83 1741.51 2446.4 1820.02 2446.54C1862.73 2446.54 1879.1 2461.7 1883.3 2503.98C1885.03 2521.28 1884.62 2538.73 1882.09 2555.94C1877.67 2586.26 1862.23 2599.78 1831.48 2599.85C1698.09 2600.14 1564.71 2600.14 1431.32 2599.85C1379.72 2599.85 1362.42 2581.56 1362.42 2530.53C1362.42 2429.79 1362.42 2329.05 1362.42 2228.31H1362.28Z" fill="#E22B2B"/>
<path d="M1966.26 2227.88V1921.82C1966.26 1891.64 1975.02 1878.04 2003.99 1869.93C2043.5 1858.21 2085.59 1858.41 2124.99 1870.5C2153.46 1879.32 2161.93 1891.35 2161.93 1920.82C2161.93 2081.97 2161.93 2243.18 2161.93 2404.4C2161.93 2455.07 2156.66 2446.39 2203.35 2446.6C2277.02 2447.03 2350.69 2446.6 2424 2446.6C2466.71 2446.6 2485.14 2463.54 2487.35 2506.25C2488.35 2522.18 2487.85 2538.17 2485.85 2554.01C2481.51 2587.11 2466.35 2599.99 2432.9 2600.06C2323.76 2600.06 2214.62 2600.06 2105.48 2600.06C2079.08 2600.06 2052.6 2600.7 2026.26 2599.56C1983.56 2597.78 1965.91 2578.57 1965.91 2536.71C1965.91 2433.84 1965.91 2331.01 1965.91 2228.23L1966.26 2227.88Z" fill="#E22B2B"/>
<path d="M542.69 1861.03C567.047 1861.03 587.726 1876.55 595.48 1898.17C595.6 1898.09 595.721 1898.01 595.841 1897.92V1899.21C597.828 1905.11 598.857 1911.45 598.745 1918.04L595.803 2091.05C595.732 2212.56 595.517 2334.07 594.844 2455.58C594.346 2554.87 557.904 2637.08 468.648 2686.62C370.495 2741.07 268.285 2743.07 167.001 2693.74C121.305 2671.53 104.792 2632.46 114.828 2582.7C126.074 2527.19 182.375 2501.06 232.199 2528.18C243.929 2535.53 256.263 2541.86 269.068 2547.12C340.245 2571.81 397.684 2529.89 398.325 2450.96C399.162 2343.04 398.897 2235.08 398.832 2127.1C398.212 2123.76 397.887 2120.32 397.887 2116.79V1917.09C397.887 1886.13 422.988 1861.03 453.951 1861.03H542.69Z" fill="#E22B2B"/>
<path d="M1691.52 3122.08C1692.05 3120.24 1692.53 3117.96 1692.97 3115.24C1693.41 3112.52 1693.8 3109.14 1694.15 3105.1C1694.5 3101.06 1694.77 3096.28 1694.94 3090.75C1695.12 3085.13 1695.21 3078.59 1695.21 3071.13V2985.42C1695.21 2977.96 1695.12 2971.47 1694.94 2965.94C1694.77 2960.32 1694.5 2955.49 1694.15 2951.45C1693.8 2947.33 1693.41 2943.91 1692.97 2941.19C1692.53 2938.46 1692.05 2936.18 1691.52 2934.34V2933.81H1722.99V2934.34C1722.46 2936.18 1721.93 2938.46 1721.41 2941.19C1720.97 2943.91 1720.57 2947.33 1720.22 2951.45C1719.96 2955.49 1719.7 2960.32 1719.43 2965.94C1719.26 2971.47 1719.17 2977.96 1719.17 2985.42V3071.13C1719.17 3078.59 1719.26 3085.13 1719.43 3090.75C1719.7 3096.28 1719.96 3101.06 1720.22 3105.1C1720.57 3109.14 1720.97 3112.52 1721.41 3115.24C1721.93 3117.96 1722.46 3120.24 1722.99 3122.08V3122.61H1691.52V3122.08ZM1914.68 2962.78L1913.5 2963.3C1906.65 2956.98 1898.4 2951.94 1888.75 2948.16C1879.18 2944.39 1868.65 2942.5 1857.15 2942.5C1846.09 2942.5 1835.95 2944.26 1826.73 2947.77C1817.52 2951.19 1809.57 2956.19 1802.9 2962.78C1796.32 2969.36 1791.19 2977.44 1787.5 2987C1783.81 2996.57 1781.97 3007.45 1781.97 3019.65C1781.97 3033.08 1783.73 3045.63 1787.24 3057.31C1790.75 3068.89 1795.97 3078.94 1802.9 3087.46C1809.84 3095.97 1818.48 3102.69 1828.84 3107.6C1839.29 3112.43 1851.44 3114.84 1865.31 3114.84C1870.31 3114.84 1875.32 3114.32 1880.32 3113.26C1885.32 3112.21 1890.11 3110.67 1894.67 3108.66C1899.32 3106.55 1903.67 3104.05 1907.7 3101.15C1911.83 3098.17 1915.56 3094.79 1918.9 3091.01L1920.34 3091.93L1909.81 3118.79C1903.23 3121.34 1895.94 3123.27 1887.96 3124.59C1880.06 3125.99 1872.07 3126.69 1863.99 3126.69C1847.76 3126.69 1832.88 3124.37 1819.36 3119.71C1805.93 3114.98 1794.35 3108.3 1784.6 3099.7C1774.95 3091.1 1767.4 3080.79 1761.96 3068.76C1756.6 3056.65 1753.93 3043.22 1753.93 3028.48C1753.93 3020.14 1754.98 3011.93 1757.09 3003.85C1759.28 2995.78 1762.44 2988.1 1766.57 2980.81C1770.69 2973.53 1775.78 2966.86 1781.84 2960.8C1787.89 2954.66 1794.78 2949.35 1802.51 2944.87C1810.32 2940.4 1818.88 2936.93 1828.18 2934.47C1837.57 2931.93 1847.71 2930.65 1858.6 2930.65C1875.54 2930.65 1891.25 2933.24 1905.73 2938.42L1914.68 2962.78ZM1944.44 2933.81C1955.41 2933.81 1966.29 2933.77 1977.09 2933.68C1987.97 2933.59 1997.93 2933.5 2006.98 2933.42C2016.02 2933.24 2023.74 2933.02 2030.15 2932.76C2036.55 2932.5 2040.9 2932.14 2043.18 2931.71L2036.73 2949.22C2033.83 2948.43 2030.45 2947.72 2026.59 2947.11C2023.26 2946.58 2019.18 2946.1 2014.35 2945.66C2009.61 2945.13 2004.12 2944.87 1997.89 2944.87C1995.78 2944.87 1993.24 2944.96 1990.25 2945.13C1987.36 2945.22 1984.55 2945.35 1981.83 2945.53C1978.67 2945.71 1975.46 2945.88 1972.22 2946.06V3017.94C1981.26 3017.85 1989.42 3017.59 1996.71 3017.15C2003.99 3016.71 2010.18 3016.27 2015.27 3015.84C2021.24 3015.31 2026.5 3014.69 2031.07 3013.99L2026.99 3033.08C2020.93 3032.29 2014.74 3031.55 2008.42 3030.84C2002.98 3030.23 1997.06 3029.7 1990.65 3029.27C1984.24 3028.74 1978.1 3028.48 1972.22 3028.48V3111.03C1982.57 3111.03 1992.1 3110.59 2000.79 3109.71C2009.48 3108.83 2017.07 3107.82 2023.56 3106.68C2031.11 3105.45 2038 3104 2044.23 3102.34L2040.42 3123.66C2039.36 3123.58 2037.78 3123.49 2035.68 3123.4C2033.57 3123.31 2031.2 3123.23 2028.57 3123.14C2026.02 3123.05 2023.3 3122.96 2020.4 3122.87C2017.6 3122.87 2014.92 3122.83 2012.37 3122.74C2009.83 3122.74 2007.55 3122.7 2005.53 3122.61C2003.6 3122.61 2002.19 3122.61 2001.31 3122.61H1944.44V3122.08C1944.96 3120.24 1945.45 3117.96 1945.89 3115.24C1946.41 3112.52 1946.85 3109.14 1947.2 3105.1C1947.55 3101.06 1947.82 3096.28 1947.99 3090.75C1948.17 3085.13 1948.26 3078.59 1948.26 3071.13V2985.42C1948.26 2977.96 1948.17 2971.47 1947.99 2965.94C1947.82 2960.32 1947.55 2955.49 1947.2 2951.45C1946.85 2947.33 1946.41 2943.91 1945.89 2941.19C1945.45 2938.46 1944.96 2936.18 1944.44 2934.34V2933.81ZM2310.19 2962.78L2309 2963.3C2302.16 2956.98 2293.9 2951.94 2284.25 2948.16C2274.68 2944.39 2264.15 2942.5 2252.65 2942.5C2241.59 2942.5 2231.45 2944.26 2222.24 2947.77C2213.02 2951.19 2205.08 2956.19 2198.41 2962.78C2191.82 2969.36 2186.69 2977.44 2183 2987C2179.32 2996.57 2177.47 3007.45 2177.47 3019.65C2177.47 3033.08 2179.23 3045.63 2182.74 3057.31C2186.25 3068.89 2191.47 3078.94 2198.41 3087.46C2205.34 3095.97 2213.99 3102.69 2224.34 3107.6C2234.79 3112.43 2246.95 3114.84 2260.81 3114.84C2265.82 3114.84 2270.82 3114.32 2275.82 3113.26C2280.83 3112.21 2285.61 3110.67 2290.17 3108.66C2294.83 3106.55 2299.17 3104.05 2303.21 3101.15C2307.33 3098.17 2311.06 3094.79 2314.4 3091.01L2315.85 3091.93L2305.31 3118.79C2298.73 3121.34 2291.45 3123.27 2283.46 3124.59C2275.56 3125.99 2267.57 3126.69 2259.5 3126.69C2243.26 3126.69 2228.38 3124.37 2214.87 3119.71C2201.44 3114.98 2189.85 3108.3 2180.11 3099.7C2170.45 3091.1 2162.9 3080.79 2157.46 3068.76C2152.11 3056.65 2149.43 3043.22 2149.43 3028.48C2149.43 3020.14 2150.48 3011.93 2152.59 3003.85C2154.78 2995.78 2157.94 2988.1 2162.07 2980.81C2166.2 2973.53 2171.29 2966.86 2177.34 2960.8C2183.4 2954.66 2190.29 2949.35 2198.01 2944.87C2205.82 2940.4 2214.38 2936.93 2223.69 2934.47C2233.08 2931.93 2243.22 2930.65 2254.1 2930.65C2271.04 2930.65 2286.75 2933.24 2301.23 2938.42L2310.19 2962.78ZM2367.72 3071.13C2367.72 3078.59 2367.81 3085.13 2367.98 3090.75C2368.25 3096.28 2368.51 3101.06 2368.77 3105.1C2369.13 3109.14 2369.52 3112.52 2369.96 3115.24C2370.49 3117.96 2371.01 3120.24 2371.54 3122.08V3122.61H2339.94V3122.08C2340.47 3120.24 2340.95 3117.96 2341.39 3115.24C2341.92 3112.52 2342.31 3109.14 2342.57 3105.1C2342.93 3101.06 2343.19 3096.28 2343.36 3090.75C2343.63 3085.22 2343.76 3078.68 2343.76 3071.13V2985.42C2343.76 2977.96 2343.63 2971.47 2343.36 2965.94C2343.19 2960.32 2342.93 2955.49 2342.57 2951.45C2342.31 2947.42 2341.92 2944.04 2341.39 2941.32C2340.95 2938.51 2340.47 2936.18 2339.94 2934.34V2933.81L2345.47 2934.34C2347.14 2934.51 2348.98 2934.65 2351 2934.73C2353.11 2934.73 2355.26 2934.73 2357.45 2934.73C2360.88 2934.73 2365.48 2934.34 2371.28 2933.55C2377.16 2932.67 2384.62 2932.23 2393.66 2932.23C2402.08 2932.23 2409.85 2933.37 2416.96 2935.66C2424.16 2937.94 2430.39 2941.27 2435.66 2945.66C2440.92 2950.05 2445.01 2955.45 2447.9 2961.86C2450.89 2968.18 2452.38 2975.37 2452.38 2983.45C2452.38 2989.77 2451.54 2995.65 2449.88 3001.09C2448.3 3006.44 2446.01 3011.32 2443.03 3015.7C2440.13 3020.09 2436.62 3024 2432.5 3027.42C2428.37 3030.76 2423.76 3033.57 2418.67 3035.85L2464.89 3100.76C2467.17 3104 2469.27 3106.81 2471.21 3109.18C2473.22 3111.55 2475.11 3113.61 2476.87 3115.37C2478.71 3117.04 2480.47 3118.44 2482.13 3119.58C2483.8 3120.64 2485.51 3121.47 2487.27 3122.08V3122.61H2449.22C2448.96 3120.94 2448.08 3118.75 2446.59 3116.03C2445.18 3113.22 2443.51 3110.45 2441.58 3107.73L2394.97 3042.04C2392.96 3042.21 2390.94 3042.39 2388.92 3042.56C2386.9 3042.65 2384.84 3042.69 2382.73 3042.69C2380.27 3042.69 2377.77 3042.61 2375.23 3042.43C2372.77 3042.26 2370.27 3041.95 2367.72 3041.51V3071.13ZM2367.72 3031.24C2370.09 3031.77 2372.5 3032.16 2374.96 3032.42C2377.42 3032.6 2379.79 3032.69 2382.07 3032.69C2388.66 3032.69 2394.67 3031.72 2400.11 3029.79C2405.55 3027.77 2410.16 3024.74 2413.93 3020.71C2417.8 3016.67 2420.78 3011.67 2422.89 3005.7C2424.99 2999.64 2426.05 2992.58 2426.05 2984.5C2426.05 2977.92 2425.3 2971.95 2423.81 2966.6C2422.32 2961.24 2420.08 2956.72 2417.09 2953.03C2414.2 2949.26 2410.51 2946.36 2406.03 2944.34C2401.56 2942.24 2396.34 2941.19 2390.37 2941.19C2384.31 2941.19 2379.48 2941.49 2375.88 2942.11C2372.29 2942.72 2369.56 2943.38 2367.72 2944.08V3031.24ZM2499.25 2933.81C2510.22 2933.81 2521.1 2933.77 2531.9 2933.68C2542.78 2933.59 2552.75 2933.5 2561.79 2933.42C2570.83 2933.24 2578.55 2933.02 2584.96 2932.76C2591.37 2932.5 2595.71 2932.14 2597.99 2931.71L2591.54 2949.22C2588.65 2948.43 2585.27 2947.72 2581.4 2947.11C2578.07 2946.58 2573.99 2946.1 2569.16 2945.66C2564.42 2945.13 2558.93 2944.87 2552.7 2944.87C2550.6 2944.87 2548.05 2944.96 2545.07 2945.13C2542.17 2945.22 2539.36 2945.35 2536.64 2945.53C2533.48 2945.71 2530.28 2945.88 2527.03 2946.06V3017.94C2536.07 3017.85 2544.23 3017.59 2551.52 3017.15C2558.8 3016.71 2564.99 3016.27 2570.08 3015.84C2576.05 3015.31 2581.32 3014.69 2585.88 3013.99L2581.8 3033.08C2575.74 3032.29 2569.55 3031.55 2563.24 3030.84C2557.79 3030.23 2551.87 3029.7 2545.46 3029.27C2539.05 3028.74 2532.91 3028.48 2527.03 3028.48V3111.03C2537.39 3111.03 2546.91 3110.59 2555.6 3109.71C2564.29 3108.83 2571.88 3107.82 2578.38 3106.68C2585.92 3105.45 2592.81 3104 2599.05 3102.34L2595.23 3123.66C2594.18 3123.58 2592.6 3123.49 2590.49 3123.4C2588.38 3123.31 2586.01 3123.23 2583.38 3123.14C2580.83 3123.05 2578.11 3122.96 2575.22 3122.87C2572.41 3122.87 2569.73 3122.83 2567.18 3122.74C2564.64 3122.74 2562.36 3122.7 2560.34 3122.61C2558.41 3122.61 2557 3122.61 2556.13 3122.61H2499.25V3122.08C2499.78 3120.24 2500.26 3117.96 2500.7 3115.24C2501.22 3112.52 2501.66 3109.14 2502.01 3105.1C2502.36 3101.06 2502.63 3096.28 2502.8 3090.75C2502.98 3085.13 2503.07 3078.59 2503.07 3071.13V2985.42C2503.07 2977.96 2502.98 2971.47 2502.8 2965.94C2502.63 2960.32 2502.36 2955.49 2502.01 2951.45C2501.66 2947.33 2501.22 2943.91 2500.7 2941.19C2500.26 2938.46 2499.78 2936.18 2499.25 2934.34V2933.81ZM2762.04 3122.61V3122.08C2762.22 3121.65 2762.35 3120.99 2762.44 3120.11C2762.52 3119.23 2762.57 3118.44 2762.57 3117.74C2762.57 3115.02 2762.17 3112.03 2761.38 3108.79C2760.68 3105.45 2759.28 3101.33 2757.17 3096.41L2741.24 3060.6C2736.32 3060.42 2729.78 3060.34 2721.62 3060.34C2713.46 3060.34 2704.64 3060.34 2695.16 3060.34C2688.22 3060.34 2681.51 3060.34 2675.01 3060.34C2668.61 3060.34 2662.81 3060.42 2657.63 3060.6L2642.49 3095.36C2641.18 3098.61 2639.77 3102.16 2638.28 3106.02C2636.79 3109.88 2636.04 3113.79 2636.04 3117.74C2636.04 3118.88 2636.13 3119.85 2636.31 3120.64C2636.48 3121.34 2636.66 3121.82 2636.83 3122.08V3122.61H2609.97V3122.08C2611.55 3120.42 2613.53 3117.48 2615.9 3113.26C2618.27 3108.96 2620.86 3103.61 2623.67 3097.2L2699.11 2929.86H2709.64L2781.13 3090.75C2782.8 3094.52 2784.51 3098.21 2786.27 3101.81C2788.11 3105.32 2789.82 3108.48 2791.4 3111.29C2792.98 3114.1 2794.38 3116.47 2795.61 3118.4C2796.84 3120.33 2797.68 3121.56 2798.12 3122.08V3122.61H2762.04ZM2676.73 3049.01C2681.82 3049.01 2687.04 3049.01 2692.39 3049.01C2697.75 3048.93 2702.97 3048.88 2708.06 3048.88C2713.24 3048.79 2718.2 3048.75 2722.94 3048.75C2727.68 3048.66 2731.98 3048.58 2735.84 3048.49L2698.84 2964.88L2662.51 3049.01H2676.73ZM2805.09 3122.08C2806.06 3120.68 2807.16 3118.62 2808.38 3115.9C2809.61 3113.09 2810.58 3109.58 2811.28 3105.36C2812.25 3099.22 2813.3 3092.33 2814.44 3084.69C2815.67 3076.97 2816.9 3068.89 2818.13 3060.47C2819.44 3052.04 2820.72 3043.44 2821.95 3034.66C2823.26 3025.8 2824.49 3017.11 2825.63 3008.59C2826.86 2999.99 2828 2991.74 2829.05 2983.84C2830.2 2975.86 2831.21 2968.57 2832.08 2961.99C2832.96 2955.4 2833.66 2949.7 2834.19 2944.87C2834.8 2939.96 2835.24 2936.27 2835.51 2933.81H2852.23L2935.04 3088.64L3017.2 2933.81H3029.7L3051.3 3090.22C3051.91 3095.14 3052.57 3099.35 3053.27 3102.86C3053.97 3106.37 3054.67 3109.4 3055.38 3111.95C3056.08 3114.4 3056.74 3116.47 3057.35 3118.13C3058.05 3119.71 3058.71 3121.03 3059.33 3122.08V3122.61H3026.15V3122.08C3026.59 3121.12 3026.98 3119.54 3027.33 3117.34C3027.77 3115.15 3027.99 3112.52 3027.99 3109.45C3027.99 3108.3 3027.95 3107.16 3027.86 3106.02C3027.77 3104.79 3027.64 3103.48 3027.47 3102.07L3010.74 2975.94L2933.07 3122.08L2923.98 3121.03L2845.78 2974.63C2842.7 2995.43 2840.03 3014.65 2837.74 3032.29C2836.78 3039.84 2835.81 3047.39 2834.85 3054.94C2833.88 3062.4 2833 3069.38 2832.21 3075.87C2831.51 3082.37 2830.94 3088.12 2830.5 3093.12C2830.06 3098.03 2829.84 3101.68 2829.84 3104.05C2829.84 3107.03 2829.93 3109.66 2830.11 3111.95C2830.28 3114.23 2830.46 3116.16 2830.63 3117.74C2830.9 3119.58 2831.16 3121.21 2831.42 3122.61H2805.09V3122.08Z" fill="#762D22"/>
<rect x="456.766" y="2983.31" width="1074.54" height="30.8346" rx="15.4173" fill="#762D22"/>
<rect x="3229.06" y="2983.31" width="1074.54" height="30.8346" rx="15.4173" fill="#762D22"/>
</svg>
